# xmcd
#
# Track frame offsets:
#	150
#	14238
#	21178
#	41442
#	54355
#	65823
#	79448
#	90370
#	100515
#	112840
#	123558
#	136363
#
# Disc length: 1950 seconds
#
# Revision: 1
# Processed by: cddbd v1.5.1PL2 Copyright (c) Steve Scherf et al.
# Submitted via: audiograbber 1.83.01
#
DISCID=9b079c0c
DTITLE=The Dixie Hummingbirds - The Best of The Dixie Hummingbirds - The Millen
DTITLE=ium Collections
DYEAR=2002
DGENRE=Gospel
TTITLE0=Loves Me Like A Rock
TTITLE1=Ezekiel Saw The Wheel
TTITLE2=Jesus Children Of America
TTITLE3=Two Little Fishes (And Five Loaves Of Bread)
TTITLE4=Going On
TTITLE5=Nobody Knows The Trouble I See
TTITLE6=You Don't Have Nothing
TTITLE7=Bedside Of A Neigbor
TTITLE8=Thank You For One More Day
TTITLE9=The Final Edition
TTITLE10=Let's Go Out To The Programs
TTITLE11=Christian's Automobile
EXTD=
EXTT0=
EXTT1=
EXTT2=
EXTT3=
EXTT4=
EXTT5=
EXTT6=
EXTT7=
EXTT8=
EXTT9=
EXTT10=
EXTT11=
PLAYORDER=
